<svg xmlns="http://www.w3.org/2000/svg" viewBox="0 0 512 512" id="drone">
  <path d="M232.864,383.767h46.272a6,6,0,0,0,6-6V349.541l9.517-16.133,50.373,37.621a26.748,26.748,0,0,0,26.395,29.528h.162a26.7,26.7,0,1,0-1.443-53.369l-22.367-28.5V195.783l22.36-28.487a26.709,26.709,0,1,0-25.107-23.85l-34.455,25.731v-35.3a6,6,0,0,0-6-6H207.429a6,6,0,0,0-6,6v33.535L165.771,139.42a26.714,26.714,0,1,0-23.86,25.1l22.628,30.3V317.289l-22.77,32.644a26.715,26.715,0,1,0,24,25.121l52.743-41.4,8.35,15.745v28.371A6,6,0,0,0,232.864,383.767ZM275.709,341.9H236.474l-7.916-14.925a60.2,60.2,0,0,1,56.035-.135Zm-2.573,29.865H238.864V353.9h34.272Zm113.173,2.075a14.718,14.718,0,1,1-28.527-5.1C363.521,353.3,386.309,357.549,386.309,373.842ZM335.773,303.4l-7.15-9.11a59.876,59.876,0,0,1,0-74.111l7.15-9.11Zm35.81-177.485a14.707,14.707,0,0,1,.83,29.392c-7.044.683-15.546-5.232-15.546-14.741A14.739,14.739,0,0,1,371.583,125.918ZM213.429,139.876h85.142v38.263l-5.957,4.449a60.115,60.115,0,0,1-72.969-.877l-6.216-4.879Zm-89.045-1.913a14.715,14.715,0,1,1,29.429,0c0,8.849-7.839,15.407-15.579,14.686C129.776,151.836,124.384,145.406,124.384,137.963Zm52.155,72.922,6.247,8.364a59.926,59.926,0,0,1,1.139,70.248l-7.386,10.589ZM153.792,377.4a14.717,14.717,0,0,1-29.408-.9v-.11a14.718,14.718,0,1,1,29.408,1.01Zm8.2-14.633a27.428,27.428,0,0,0-8.455-8.724l40.234-57.682a71.906,71.906,0,0,0-1.366-84.293L153.733,160.3a27.373,27.373,0,0,0,8.254-8.59l50.247,39.444A72.145,72.145,0,0,0,299.8,192.2l49.458-36.936a27.479,27.479,0,0,0,8.591,8.251l-38.66,49.254a71.848,71.848,0,0,0,0,88.929l38.66,49.256a27.475,27.475,0,0,0-8.591,8.251L299.8,322.271c-25.333-18.918-59.253-18.3-82.593-2.514C213.657,322.082,216.6,319.9,161.988,362.768Z"></path>
  <path d="M256 282.482A26.483 26.483 0 1 0 229.518 256 26.511 26.511 0 0 0 256 282.482zm0-40.965A14.483 14.483 0 1 1 241.518 256 14.5 14.5 0 0 1 256 241.517zM204 111.813a6 6 0 1 0 11.131-4.483A81.962 81.962 0 1 0 142.5 219.846a6 6 0 0 0-.49-11.991A69.957 69.957 0 1 1 204 111.813zM372.905 56a81.6 81.6 0 0 0-76.036 51.33A6 6 0 0 0 308 111.813a69.962 69.962 0 1 1 61.993 96.042 6 6 0 0 0-.49 11.991A81.958 81.958 0 1 0 372.905 56zM454.857 374.037a82.045 82.045 0 0 0-81.952-81.953c-1.117 0-2.261.023-3.4.07a6 6 0 0 0 .49 11.991A69.957 69.957 0 1 1 308 400.187a6 6 0 1 0-11.131 4.482 81.964 81.964 0 0 0 157.988-30.632zM139.1 456a81.594 81.594 0 0 0 76.036-51.331A6 6 0 1 0 204 400.187a69.962 69.962 0 1 1-61.993-96.042 6 6 0 0 0 .49-11.991c-1.141-.047-2.285-.07-3.4-.07A81.958 81.958 0 0 0 139.1 456z"></path>
  <path d="M86.811 137.963a6 6 0 0 0 12 0 40.336 40.336 0 0 1 40.284-40.3 6 6 0 0 0 0-12A52.349 52.349 0 0 0 86.811 137.963zM413.189 137.963a6 6 0 1 0 12 0 52.349 52.349 0 0 0-52.284-52.3 6 6 0 0 0 0 12A40.336 40.336 0 0 1 413.189 137.963zM366.905 420.332a6 6 0 0 0 6 6 52.348 52.348 0 0 0 52.284-52.3 6 6 0 0 0-12 0 40.335 40.335 0 0 1-40.284 40.3A6 6 0 0 0 366.905 420.332zM92.811 368.037a6 6 0 0 0-6 6 52.348 52.348 0 0 0 52.284 52.3 6 6 0 1 0 0-12 40.335 40.335 0 0 1-40.284-40.3A6 6 0 0 0 92.811 368.037z"></path>
</svg>
