<svg xmlns="http://www.w3.org/2000/svg" viewBox="0 0 64 64" id="stopwatch">
  <path fill="#fbab2c" d="M29.31 5.15h5.37v7.52h-5.37z"></path>
  <path fill="#feb944" d="m52.93 13.77-.26-.26a2.49 2.49 0 0 0-3.53 0l-3.55 3.55 3.79 3.8 3.55-3.55a2.5 2.5 0 0 0 0-3.54zm-38.07-.26a2.49 2.49 0 0 0-3.53 0l-.26.26a2.5 2.5 0 0 0 0 3.54l3.55 3.55 3.79-3.8z"></path>
  <circle cx="32" cy="36" r="25" fill="#3c323d"></circle>
  <rect width="10.74" height="4.3" x="26.63" y="3" fill="#feb944" rx="2"></rect>
  <circle cx="32" cy="36" r="21" fill="#d7e6ef"></circle>
  <circle cx="32" cy="36.3" r="2.6" fill="#3c323d"></circle>
  <circle cx="19.88" cy="25.62" r="1.25" fill="#f5f9ff"></circle>
  <circle cx="21.75" cy="28.75" r=".62" fill="#f5f9ff"></circle>
  <g fill="#1e120b">
    <circle cx="32" cy="15" r="1"></circle>
    <path d="M52.11 19.54 53.64 18a3.51 3.51 0 0 0 0-4.95l-.26-.27a3.51 3.51 0 0 0-5 0l-1.75 1.75a25.79 25.79 0 0 0-11-4.28v-2a3 3 0 0 0 2.68-3V5a3 3 0 0 0-3-3h-6.68a3 3 0 0 0-3 3v.3a3 3 0 0 0 2.68 3v2a25.79 25.79 0 0 0-11 4.28l-1.74-1.78a3.59 3.59 0 0 0-5 0l-.26.27a3.51 3.51 0 0 0 0 4.95l1.53 1.52a26 26 0 1 0 40.22 0Zm-2.27-5.32a1.49 1.49 0 0 1 2.12 0l.27.26a1.51 1.51 0 0 1 0 2.12l-1.45 1.45a26.8 26.8 0 0 0-2.48-2.29ZM27.63 5.3V5a1 1 0 0 1 1-1h6.74a1 1 0 0 1 1 1v.3a1 1 0 0 1-1 1h-6.74a1 1 0 0 1-1-1Zm2.68 3h3.38v1.76C33.13 10 32.57 10 32 10s-1.13 0-1.69.06Zm-18.54 8.3a1.51 1.51 0 0 1 0-2.12l.27-.26a1.53 1.53 0 0 1 2.12 0l1.54 1.54a26.8 26.8 0 0 0-2.48 2.29ZM32 60a24 24 0 1 1 24-24 24 24 0 0 1-24 24Z"></path>
    <path d="M36.22 14.41a1 1 0 0 0-.38 2 20 20 0 1 1-7.87 0 1 1 0 0 0-.4-2 22 22 0 1 0 8.65 0Z"></path>
    <path d="M46.16 44.56a1 1 0 0 0 1.35-.43A17.1 17.1 0 0 0 32.3 19.19a1 1 0 1 0 0 2A15.12 15.12 0 0 1 47.41 36.3a14.94 14.94 0 0 1-1.68 6.91 1 1 0 0 0 .43 1.35zM32.3 39.9a3.59 3.59 0 0 0 1.7-.46l8 8A1 1 0 1 0 43.41 46l-8-8a3.57 3.57 0 0 0-3.11-5.3 3.52 3.52 0 0 0-1.73.46l-1.86-1.87a1 1 0 0 0-1.42 1.42l1.87 1.86a3.52 3.52 0 0 0-.46 1.73 3.6 3.6 0 0 0 3.6 3.6zm0-5.2a1.6 1.6 0 1 1-1.6 1.6 1.6 1.6 0 0 1 1.6-1.6z"></path>
  </g>
</svg>
