<svg xmlns="http://www.w3.org/2000/svg" viewBox="0 0 512 512" width="20" height="20">
  <path fill="#332e8e" d="M381.6,211.8c.8,.8,1.9,1.2,2.9,1.2s2.1-.4,2.9-1.2c1.6-1.6,1.6-4.3,0-5.9l-17-17c-1.6-1.6-4.3-1.6-5.9,0-1.6,1.6-1.6,4.3,0,5.9l17,17z"></path>
  <path fill="#ff5859" d="M257.5,343.5l-14,13.6l3.3,19.2c1.3,7.6-6.7,13.4-13.5,9.8l-17.3-9.1l-17.3,9.1c-6.8,3.6-14.8-2.2-13.5-9.8l3.3-19.2l-14-13.5c-5.5-5.4-2.5-14.8,5.1-15.9l19.3-2.8l8.6-17.4c3.4-6.9,13.3-6.9,16.7,0l8.6,17.4l19.3,2.8c5.5,1.1,8.4,7.4,5.1,15.9z"></path>
  <path fill="#332e8e" d="M316.5,146.7c.8,.8,1.9,1.2,2.9,1.2s2.1-.4,2.9-1.2c1.6-1.6,1.6-4.3,0-5.9l-17-17c-1.6-1.6-4.3-1.6-5.9,0-1.6,1.6-1.6,4.3,0,5.9l17,17z"></path>
</svg>